# xmcd
#
# Track frame offsets: 
#        150
#        27739
#        106446
#        126036
#        144780
#        171037
#        190066
#
# Disc length: 2857 seconds
#
# Revision: 1
# Processed by: cddbd v1.5.2PL0 Copyright (c) Steve Scherf et al.
# Submitted via: ExactAudioCopy v1.0b3
#
DISCID=590b2707
DTITLE=Илья Дроздихин - Царицынские звоны
DYEAR=2006
DGENRE=Freestyle
TTITLE0=Благовест. Валовый благовест
TTITLE1=Рождество в Царицыне
TTITLE2=Венчальный звон
TTITLE3=Водосвятный перезвон
TTITLE4=Дорога
TTITLE5=Погребальный звон
TTITLE6=Танец снежинок
EXTD=
EXTT0=
EXTT1=
EXTT2=
EXTT3=
EXTT4=
EXTT5=
EXTT6=
PLAYORDER=
